<mxfile host="65bd71144e">
    <diagram id="rMYY26GnUD_YSgXo3cjE" name="Page-1">
        <mxGraphModel dx="2027" dy="1273" grid="1" gridSize="10" guides="1" tooltips="1" connect="1" arrows="1" fold="1" page="1" pageScale="1" pageWidth="850" pageHeight="1100" math="0" shadow="0">
            <root>
                <mxCell id="0"/>
                <mxCell id="1" parent="0"/>
                <mxCell id="2" style="edgeStyle=orthogonalEdgeStyle;html=1;entryX=0;entryY=0.5;entryDx=0;entryDy=0;" parent="1" target="20" edge="1">
                    <mxGeometry relative="1" as="geometry">
                        <Array as="points">
                            <mxPoint x="125" y="380"/>
                            <mxPoint x="125" y="250"/>
                        </Array>
                        <mxPoint x="115" y="380" as="sourcePoint"/>
                    </mxGeometry>
                </mxCell>
                <mxCell id="3" style="edgeStyle=orthogonalEdgeStyle;html=1;entryX=0;entryY=0.5;entryDx=0;entryDy=0;" parent="1" target="23" edge="1">
                    <mxGeometry relative="1" as="geometry">
                        <Array as="points">
                            <mxPoint x="135" y="380"/>
                            <mxPoint x="135" y="320"/>
                        </Array>
                        <mxPoint x="115" y="380" as="sourcePoint"/>
                    </mxGeometry>
                </mxCell>
                <mxCell id="4" style="edgeStyle=none;html=1;entryX=0;entryY=0.5;entryDx=0;entryDy=0;" parent="1" source="5" target="29" edge="1">
                    <mxGeometry relative="1" as="geometry"/>
                </mxCell>
                <mxCell id="48" style="edgeStyle=orthogonalEdgeStyle;html=1;entryX=0;entryY=0.5;entryDx=0;entryDy=0;" edge="1" parent="1" target="43">
                    <mxGeometry relative="1" as="geometry">
                        <mxPoint x="115" y="380" as="sourcePoint"/>
                        <Array as="points">
                            <mxPoint x="255" y="380"/>
                            <mxPoint x="255" y="440"/>
                        </Array>
                    </mxGeometry>
                </mxCell>
                <mxCell id="58" style="edgeStyle=orthogonalEdgeStyle;html=1;entryX=0;entryY=0.5;entryDx=0;entryDy=0;" edge="1" parent="1" target="57">
                    <mxGeometry relative="1" as="geometry">
                        <mxPoint x="115" y="380" as="sourcePoint"/>
                        <Array as="points">
                            <mxPoint x="255" y="380"/>
                            <mxPoint x="255" y="500"/>
                        </Array>
                    </mxGeometry>
                </mxCell>
                <mxCell id="5" value="Пользователь" style="shape=umlActor;verticalLabelPosition=bottom;verticalAlign=top;html=1;outlineConnect=0;" parent="1" vertex="1">
                    <mxGeometry x="85" y="350" width="30" height="60" as="geometry"/>
                </mxCell>
                <mxCell id="6" style="edgeStyle=orthogonalEdgeStyle;html=1;entryX=0;entryY=0.5;entryDx=0;entryDy=0;" parent="1" source="8" target="20" edge="1">
                    <mxGeometry relative="1" as="geometry">
                        <Array as="points">
                            <mxPoint x="185" y="840"/>
                            <mxPoint x="185" y="250"/>
                        </Array>
                    </mxGeometry>
                </mxCell>
                <mxCell id="7" style="edgeStyle=orthogonalEdgeStyle;html=1;" parent="1" source="8" target="23" edge="1">
                    <mxGeometry relative="1" as="geometry">
                        <Array as="points">
                            <mxPoint x="195" y="840"/>
                            <mxPoint x="195" y="320"/>
                        </Array>
                    </mxGeometry>
                </mxCell>
                <mxCell id="79" style="edgeStyle=none;html=1;entryX=0;entryY=0.5;entryDx=0;entryDy=0;" edge="1" parent="1" target="78">
                    <mxGeometry relative="1" as="geometry">
                        <mxPoint x="115" y="840" as="sourcePoint"/>
                    </mxGeometry>
                </mxCell>
                <mxCell id="8" value="Разработчик" style="shape=umlActor;verticalLabelPosition=bottom;verticalAlign=top;html=1;outlineConnect=0;" parent="1" vertex="1">
                    <mxGeometry x="85" y="810" width="30" height="60" as="geometry"/>
                </mxCell>
                <mxCell id="9" style="edgeStyle=orthogonalEdgeStyle;html=1;entryX=0;entryY=0.5;entryDx=0;entryDy=0;" parent="1" target="20" edge="1">
                    <mxGeometry relative="1" as="geometry">
                        <Array as="points">
                            <mxPoint x="145" y="570"/>
                            <mxPoint x="145" y="250"/>
                        </Array>
                        <mxPoint x="115" y="570" as="sourcePoint"/>
                    </mxGeometry>
                </mxCell>
                <mxCell id="10" style="edgeStyle=orthogonalEdgeStyle;html=1;" parent="1" target="23" edge="1">
                    <mxGeometry relative="1" as="geometry">
                        <Array as="points">
                            <mxPoint x="155" y="570"/>
                            <mxPoint x="155" y="320"/>
                        </Array>
                        <mxPoint x="115" y="570" as="sourcePoint"/>
                    </mxGeometry>
                </mxCell>
                <mxCell id="11" style="edgeStyle=none;html=1;" parent="1" source="12" target="36" edge="1">
                    <mxGeometry relative="1" as="geometry"/>
                </mxCell>
                <mxCell id="68" style="edgeStyle=orthogonalEdgeStyle;html=1;entryX=0;entryY=0.5;entryDx=0;entryDy=0;" edge="1" parent="1" target="66">
                    <mxGeometry relative="1" as="geometry">
                        <mxPoint x="115" y="570" as="sourcePoint"/>
                        <Array as="points">
                            <mxPoint x="255" y="570"/>
                            <mxPoint x="255" y="650"/>
                        </Array>
                    </mxGeometry>
                </mxCell>
                <mxCell id="12" value="Дежурный" style="shape=umlActor;verticalLabelPosition=bottom;verticalAlign=top;html=1;outlineConnect=0;" parent="1" vertex="1">
                    <mxGeometry x="85" y="540" width="30" height="60" as="geometry"/>
                </mxCell>
                <mxCell id="13" style="edgeStyle=orthogonalEdgeStyle;html=1;entryX=0;entryY=0.5;entryDx=0;entryDy=0;" parent="1" source="17" target="20" edge="1">
                    <mxGeometry relative="1" as="geometry">
                        <Array as="points">
                            <mxPoint x="165" y="730"/>
                            <mxPoint x="165" y="250"/>
                        </Array>
                        <mxPoint x="115" y="740" as="sourcePoint"/>
                    </mxGeometry>
                </mxCell>
                <mxCell id="14" style="edgeStyle=orthogonalEdgeStyle;html=1;" parent="1" target="23" edge="1">
                    <mxGeometry relative="1" as="geometry">
                        <Array as="points">
                            <mxPoint x="115" y="730"/>
                            <mxPoint x="175" y="730"/>
                            <mxPoint x="175" y="320"/>
                        </Array>
                        <mxPoint x="115" y="730" as="sourcePoint"/>
                    </mxGeometry>
                </mxCell>
                <mxCell id="15" style="edgeStyle=none;html=1;entryX=0;entryY=0.5;entryDx=0;entryDy=0;" parent="1" source="17" target="37" edge="1">
                    <mxGeometry relative="1" as="geometry"/>
                </mxCell>
                <mxCell id="17" value="Админ" style="shape=umlActor;verticalLabelPosition=bottom;verticalAlign=top;html=1;outlineConnect=0;" parent="1" vertex="1">
                    <mxGeometry x="85" y="700" width="30" height="60" as="geometry"/>
                </mxCell>
                <mxCell id="18" style="edgeStyle=none;html=1;entryX=0;entryY=0.5;entryDx=0;entryDy=0;" parent="1" source="20" target="24" edge="1">
                    <mxGeometry relative="1" as="geometry"/>
                </mxCell>
                <mxCell id="19" style="edgeStyle=none;html=1;entryX=0;entryY=0;entryDx=0;entryDy=0;" parent="1" source="20" target="25" edge="1">
                    <mxGeometry relative="1" as="geometry"/>
                </mxCell>
                <mxCell id="20" value="Регистрация" style="ellipse;whiteSpace=wrap;html=1;" parent="1" vertex="1">
                    <mxGeometry x="285" y="230" width="120" height="40" as="geometry"/>
                </mxCell>
                <mxCell id="21" style="edgeStyle=none;html=1;entryX=0;entryY=1;entryDx=0;entryDy=0;" parent="1" source="23" target="24" edge="1">
                    <mxGeometry relative="1" as="geometry"/>
                </mxCell>
                <mxCell id="22" style="edgeStyle=none;html=1;entryX=0;entryY=0.5;entryDx=0;entryDy=0;" parent="1" source="23" target="25" edge="1">
                    <mxGeometry relative="1" as="geometry"/>
                </mxCell>
                <mxCell id="23" value="Вход" style="ellipse;whiteSpace=wrap;html=1;" parent="1" vertex="1">
                    <mxGeometry x="285" y="300" width="120" height="40" as="geometry"/>
                </mxCell>
                <mxCell id="24" value="Ввод ФИО" style="ellipse;whiteSpace=wrap;html=1;" parent="1" vertex="1">
                    <mxGeometry x="445" y="230" width="120" height="40" as="geometry"/>
                </mxCell>
                <mxCell id="56" style="edgeStyle=orthogonalEdgeStyle;html=1;exitX=1;exitY=0.5;exitDx=0;exitDy=0;entryX=1;entryY=0.5;entryDx=0;entryDy=0;" edge="1" parent="1" source="25" target="31">
                    <mxGeometry relative="1" as="geometry">
                        <Array as="points">
                            <mxPoint x="765" y="320"/>
                            <mxPoint x="765" y="410"/>
                        </Array>
                    </mxGeometry>
                </mxCell>
                <mxCell id="63" style="edgeStyle=orthogonalEdgeStyle;html=1;exitX=1;exitY=0.5;exitDx=0;exitDy=0;entryX=1;entryY=0.5;entryDx=0;entryDy=0;" edge="1" parent="1" source="25" target="36">
                    <mxGeometry relative="1" as="geometry">
                        <Array as="points">
                            <mxPoint x="765" y="320"/>
                            <mxPoint x="765" y="570"/>
                        </Array>
                    </mxGeometry>
                </mxCell>
                <mxCell id="65" style="edgeStyle=orthogonalEdgeStyle;html=1;exitX=1;exitY=0.5;exitDx=0;exitDy=0;entryX=1;entryY=0.5;entryDx=0;entryDy=0;" edge="1" parent="1" source="25" target="57">
                    <mxGeometry relative="1" as="geometry">
                        <Array as="points">
                            <mxPoint x="765" y="320"/>
                            <mxPoint x="765" y="500"/>
                        </Array>
                    </mxGeometry>
                </mxCell>
                <mxCell id="70" style="edgeStyle=orthogonalEdgeStyle;html=1;exitX=1;exitY=0.5;exitDx=0;exitDy=0;entryX=1;entryY=0.5;entryDx=0;entryDy=0;" edge="1" parent="1" source="25" target="66">
                    <mxGeometry relative="1" as="geometry">
                        <Array as="points">
                            <mxPoint x="765" y="320"/>
                            <mxPoint x="765" y="650"/>
                        </Array>
                    </mxGeometry>
                </mxCell>
                <mxCell id="77" style="edgeStyle=orthogonalEdgeStyle;html=1;exitX=1;exitY=0.5;exitDx=0;exitDy=0;entryX=1;entryY=0.5;entryDx=0;entryDy=0;" edge="1" parent="1" source="25" target="37">
                    <mxGeometry relative="1" as="geometry">
                        <Array as="points">
                            <mxPoint x="765" y="320"/>
                            <mxPoint x="765" y="730"/>
                        </Array>
                    </mxGeometry>
                </mxCell>
                <mxCell id="25" value="Ввод пароля" style="ellipse;whiteSpace=wrap;html=1;" parent="1" vertex="1">
                    <mxGeometry x="445" y="300" width="120" height="40" as="geometry"/>
                </mxCell>
                <mxCell id="53" style="edgeStyle=orthogonalEdgeStyle;html=1;exitX=1;exitY=0.5;exitDx=0;exitDy=0;entryX=0;entryY=0.5;entryDx=0;entryDy=0;" edge="1" parent="1" source="29" target="30">
                    <mxGeometry relative="1" as="geometry"/>
                </mxCell>
                <mxCell id="29" value="Ввод отправной станции" style="ellipse;whiteSpace=wrap;html=1;" parent="1" vertex="1">
                    <mxGeometry x="285" y="360" width="120" height="40" as="geometry"/>
                </mxCell>
                <mxCell id="55" style="edgeStyle=none;html=1;exitX=1;exitY=0.5;exitDx=0;exitDy=0;" edge="1" parent="1" source="30" target="31">
                    <mxGeometry relative="1" as="geometry"/>
                </mxCell>
                <mxCell id="30" value="Поиск маршрутов" style="ellipse;whiteSpace=wrap;html=1;" parent="1" vertex="1">
                    <mxGeometry x="445" y="390" width="120" height="40" as="geometry"/>
                </mxCell>
                <mxCell id="31" value="Сохранить в избранные" style="ellipse;whiteSpace=wrap;html=1;" parent="1" vertex="1">
                    <mxGeometry x="605" y="390" width="120" height="40" as="geometry"/>
                </mxCell>
                <mxCell id="36" value="Изменить нагруженность станции/перехода" style="ellipse;whiteSpace=wrap;html=1;" parent="1" vertex="1">
                    <mxGeometry x="275" y="540" width="140" height="60" as="geometry"/>
                </mxCell>
                <mxCell id="37" value="Изменить название схемы/ветки/станции" style="ellipse;whiteSpace=wrap;html=1;" parent="1" vertex="1">
                    <mxGeometry x="280" y="700" width="130" height="60" as="geometry"/>
                </mxCell>
                <mxCell id="54" style="edgeStyle=orthogonalEdgeStyle;html=1;exitX=1;exitY=0.5;exitDx=0;exitDy=0;entryX=0;entryY=0.5;entryDx=0;entryDy=0;" edge="1" parent="1" source="43" target="30">
                    <mxGeometry relative="1" as="geometry"/>
                </mxCell>
                <mxCell id="43" value="Ввод конечной станции" style="ellipse;whiteSpace=wrap;html=1;" vertex="1" parent="1">
                    <mxGeometry x="285" y="420" width="120" height="40" as="geometry"/>
                </mxCell>
                <mxCell id="57" value="Просмотр избранных" style="ellipse;whiteSpace=wrap;html=1;" vertex="1" parent="1">
                    <mxGeometry x="285" y="480" width="120" height="40" as="geometry"/>
                </mxCell>
                <mxCell id="66" value="Изменить статус станции/перехода" style="ellipse;whiteSpace=wrap;html=1;" vertex="1" parent="1">
                    <mxGeometry x="285" y="620" width="120" height="60" as="geometry"/>
                </mxCell>
                <mxCell id="78" value="Добавить/Удалить схему/ветку/станцию" style="ellipse;whiteSpace=wrap;html=1;" vertex="1" parent="1">
                    <mxGeometry x="285" y="810" width="130" height="60" as="geometry"/>
                </mxCell>
            </root>
        </mxGraphModel>
    </diagram>
</mxfile>